<?xml version="1.0" standalone="no"?>
<!DOCTYPE svg PUBLIC "-//W3C//DTD SVG 20010904//EN"
 "http://www.w3.org/TR/2001/REC-SVG-20010904/DTD/svg10.dtd">
<svg version="1.0" xmlns="http://www.w3.org/2000/svg"
 width="256.000000pt" height="256.000000pt" viewBox="0 0 256.000000 256.000000"
 preserveAspectRatio="xMidYMid meet">

<g transform="translate(0.000000,256.000000) scale(0.100000,-0.100000)"
fill="#000000" stroke="none">
<path d="M376 2515 c-24 -25 -29 -54 -12 -80 36 -55 116 -35 116 29 0 19 -8
40 -18 49 -23 21 -66 22 -86 2z"/>
<path d="M203 1893 c-166 -260 -216 -610 -132 -925 l21 -78 164 0 164 0 0
-128 c0 -86 4 -132 12 -140 9 -9 161 -12 622 -12 l611 0 17 29 c42 75 122 79
167 8 l25 -37 290 2 291 3 3 211 2 212 -35 21 c-74 43 -66 142 13 172 l22 9
-2 212 -3 213 -192 3 -193 2 0 121 c0 66 -5 129 -10 140 -10 18 -24 19 -296
19 l-285 0 -20 -35 c-25 -41 -46 -55 -86 -55 -36 0 -69 23 -88 61 l-16 29
-514 0 -515 0 -37 -57z m1186 -157 c7 -8 11 -30 9 -48 -2 -25 -8 -33 -23 -33
-15 0 -21 8 -23 33 -6 57 12 79 37 48z m-870 -35 c44 -31 63 -65 63 -114 0
-149 -185 -201 -262 -75 -24 40 -26 88 -4 134 19 41 33 52 81 70 44 15 87 10
122 -15z m395 -17 c35 -35 21 -54 -226 -301 -191 -191 -248 -243 -268 -243
-31 0 -50 17 -50 44 0 26 487 516 512 516 9 0 24 -7 32 -16z m966 -39 c10 -12
10 -18 0 -30 -11 -13 -41 -15 -189 -13 -163 3 -176 4 -179 22 -2 10 2 22 10
27 7 5 88 9 179 9 136 0 169 -3 179 -15z m-482 -123 c4 -37 -12 -64 -34 -55
-15 5 -20 73 -7 87 16 16 38 -1 41 -32z m482 -17 c10 -12 10 -18 0 -30 -10
-12 -43 -15 -175 -15 -90 0 -170 3 -179 6 -19 7 -21 40 -3 47 6 3 87 6 178 6
137 1 169 -2 179 -14z m-910 -123 c135 -68 86 -265 -67 -265 -75 0 -136 61
-136 136 0 110 106 178 203 129z m910 -17 c10 -12 10 -18 0 -30 -10 -12 -43
-15 -175 -15 -90 0 -170 3 -179 6 -19 7 -21 40 -3 47 6 3 87 6 178 6 137 1
169 -2 179 -14z m-485 -40 c0 -33 -3 -40 -20 -40 -16 0 -21 8 -23 43 -3 40 -2
43 20 40 20 -3 23 -9 23 -43z m485 -100 c10 -12 10 -18 0 -30 -10 -12 -43 -15
-175 -15 -90 0 -170 3 -179 6 -19 7 -21 40 -3 47 6 3 87 6 178 6 137 1 169 -2
179 -14z m-486 -51 c16 -42 -7 -96 -34 -79 -11 7 -14 78 -3 88 11 12 31 7 37
-9z m-1094 -159 c21 -25 -5 -45 -60 -45 -61 0 -80 7 -80 30 0 23 13 28 76 29
34 1 56 -4 64 -14z"/>
<path d="M404 1595 c-7 -29 10 -55 36 -55 24 0 42 24 38 52 -2 18 -10 24 -35
26 -28 3 -33 -1 -39 -23z"/>
<path d="M882 1288 c-17 -17 -15 -55 4 -66 25 -14 53 -3 60 24 11 42 -34 72
-64 42z"/>
</g>
</svg>
